<svg width="13" height="9" viewBox="0 0 13 9" fill="none" xmlns="http://www.w3.org/2000/svg">
<path d="M8.49316 8.07337C8.7166 8.16985 8.97559 8.12415 9.15332 7.95657L12.8096 4.50344C12.9314 4.38919 13 4.22922 13 4.06165C13 3.89407 12.9314 3.73411 12.8096 3.61985L9.15332 0.166724C8.97559 -0.000853956 8.7166 -0.046557 8.49316 0.0499273C8.26973 0.146412 8.125 0.36731 8.125 0.608521V2.43665H0.8125C0.363086 2.43665 0 2.79973 0 3.24915V4.87415C0 5.32356 0.363086 5.68665 0.8125 5.68665H8.125V7.51477C8.125 7.75852 8.26973 7.97688 8.49316 8.07337Z" fill="black" fill-opacity="0.7"/>
</svg>
